# xmcd CD database file
#
# Track frame offsets:
#	182
#	12852
#	24900
#	39555
#	49567
#	60850
#	71860
#	82457
#	93745
#	114372
#
# Disc length: 1719 seconds
#
# Revision: 0
# Processed by: cddbd v1.5.2PL0 Copyright (c) Steve Scherf et al.
# Submitted via: CDex 1.70beta2
#
DISCID=7c06b50a
DTITLE=Various Artist - Get Ready to Square Dance
DYEAR=1900
DGENRE=Country
TTITLE0=Honor Your Parnter (Cotton-Eyed Joe)
TTITLE1=Circle Left/Right and Into the Center and Back (Oh Belinda)
TTITLE2=Swing Your Parnter and Circle (Turkey in the Straw)
TTITLE3=Into The Cetner and Back and Swing Your Parnter (Shoo Fly)
TTITLE4=Promenade and Square Your Set (Irish Washerwoman)
TTITLE5=Forward and Back and Swing Your Corner/Parnter (Comin' Round the Mountain)
TTITLE6=Do-Sa-Do and Promenade (Hinkey Dinkey)
TTITLE7=Allemande Left/Right and Star (Captain Jinks)
TTITLE8=Hoedown (spoken calls)
TTITLE9=Tie A Yellow Ribbon (singing calls)
EXTD=
EXTT0=
EXTT1=
EXTT2=
EXTT3=
EXTT4=
EXTT5=
EXTT6=
EXTT7=
EXTT8=
EXTT9=
PLAYORDER=
